Coordinates
version=1
nRows=34
nColumns=38
inDegrees=no

Units are S.I. units (second, meters, Newtons, ...)
If the header above contains a line with 'inDegrees', this indicates whether rotational values are in degrees (yes) or radians (no).

endheader
time	pelvis_tilt	pelvis_list	pelvis_rotation	pelvis_tx	pelvis_ty	pelvis_tz	hip_flexion_r	hip_adduction_r	hip_rotation_r	knee_angle_r	ankle_angle_r	subtalar_angle_r	mtp_angle_r	hip_flexion_l	hip_adduction_l	hip_rotation_l	knee_angle_l	ankle_angle_l	subtalar_angle_l	mtp_angle_l	lumbar_extension	lumbar_bending	lumbar_rotation	arm_flex_r	arm_add_r	arm_rot_r	elbow_flex_r	pro_sup_r	wrist_flex_r	wrist_dev_r	arm_flex_l	arm_add_l	arm_rot_l	elbow_flex_l	pro_sup_l	wrist_flex_l	wrist_dev_l
0	3.10691	1.47521	-1.54136	0.667489	0.112283	1.03638	0.385697	0.0464026	0.0688609	1.19838	-0.150713	0	0	-0.100637	0.0456167	-0.18572	0.348036	-0.175508	0	0	-0.525901	0.00258588	0.0934752	-0.0772978	-0.292816	0.260505	0.563451	1.33796	0	0	0.0619695	-0.332303	0.585701	0.494639	1.15769	0	0
0.01	3.08008	1.48861	-1.51339	0.667091	0.121822	1.03541	0.417904	0.0442343	0.0612954	1.16925	-0.148811	0	0	-0.100924	0.0457984	-0.180303	0.338154	-0.17382	0	0	-0.532229	-0.00667555	0.153281	-0.114472	-0.294385	0.209851	0.58848	1.30898	0	0	0.100608	-0.328634	0.615681	0.505669	1.18801	0	0
0.02	3.06482	1.49072	-1.49724	0.666872	0.131302	1.03512	0.435284	0.0398243	0.0503348	1.13561	-0.148029	0	0	-0.114507	0.0462238	-0.17837	0.32547	-0.174232	0	0	-0.529897	-0.00353441	0.154249	-0.11864	-0.298589	0.210139	0.598877	1.30033	0	0	0.101845	-0.326801	0.611745	0.505692	1.19132	0	0
0.03	3.04408	1.49334	-1.47569	0.666613	0.141016	1.03475	0.451211	0.0344183	0.0362492	1.09864	-0.149555	0	0	-0.127654	0.0461108	-0.176348	0.313447	-0.174495	0	0	-0.530149	-0.00367947	0.162967	-0.123318	-0.302459	0.213235	0.604865	1.2888	0	0	0.106072	-0.326116	0.609104	0.511447	1.19726	0	0
0.04	3.02786	1.49185	-1.45882	0.666539	0.150532	1.03436	0.461653	0.0286823	0.0200626	1.06042	-0.152321	0	0	-0.144522	0.0450493	-0.175527	0.303114	-0.173652	0	0	-0.524206	0.00484962	0.143942	-0.117126	-0.308759	0.230575	0.612381	1.28301	0	0	0.0948092	-0.32446	0.59393	0.505434	1.19247	0	0
0.05	2.99304	1.49563	-1.42301	0.666384	0.160453	1.0337	0.475806	0.0231271	0.00149727	1.01952	-0.157163	0	0	-0.155878	0.0434247	-0.172328	0.291827	-0.172543	0	0	-0.526892	0.00498579	0.160924	-0.125489	-0.318752	0.244877	0.623493	1.23721	0	0	0.104704	-0.318605	0.586362	0.505903	1.21368	0	0
0.06	2.97718	1.4959	-1.40638	0.666434	0.170188	1.03298	0.484765	0.0174018	-0.0170978	0.977505	-0.159817	0	0	-0.170863	0.0426015	-0.169912	0.280925	-0.171041	0	0	-0.526387	0.0110277	0.160091	-0.143468	-0.280086	0.0984594	0.631567	1.41543	0	0	0.115925	-0.323835	0.643274	0.498849	1.15907	0	0
0.07	2.93362	1.50235	-1.36256	0.666337	0.180374	1.0319	0.498203	0.0135555	-0.0362765	0.932702	-0.162041	0	0	-0.179291	0.0416871	-0.166395	0.27019	-0.169207	0	0	-0.53637	0.00432402	0.204447	-0.167688	-0.279071	0.0678	0.645524	1.39136	0	0	0.145506	-0.316934	0.665359	0.50205	1.17972	0	0
0.08	2.90009	1.50653	-1.32881	0.666408	0.190479	1.03076	0.50815	0.010376	-0.0559622	0.887555	-0.163835	0	0	-0.189955	0.0412543	-0.162252	0.260163	-0.167393	0	0	-0.535167	0.00372464	0.21249	-0.169203	-0.281171	0.0735247	0.644019	1.38658	0	0	0.149742	-0.314652	0.663903	0.502593	1.18232	0	0
0.09	2.8961	1.50259	-1.32558	0.666645	0.200168	1.02983	0.509	0.00882579	-0.0755299	0.844349	-0.166278	0	0	-0.208708	0.0404272	-0.161615	0.251856	-0.16546	0	0	-0.525276	0.017027	0.17484	-0.154503	-0.286685	0.0957268	0.647343	1.39203	0	0	0.127631	-0.314788	0.64473	0.488924	1.16989	0	0
0.1	2.84175	1.50746	-1.27182	0.666702	0.210577	1.02849	0.517478	0.00878084	-0.0955605	0.799972	-0.171411	0	0	-0.218001	0.0392056	-0.157667	0.243218	-0.163788	0	0	-0.528664	0.0143692	0.198076	-0.16361	-0.293304	0.104966	0.651456	1.35593	0	0	0.140654	-0.309811	0.647896	0.490905	1.1828	0	0
0.11	2.81811	1.50586	-1.24907	0.666967	0.220742	1.02732	0.517303	0.009729	-0.114779	0.756613	-0.177158	0	0	-0.234697	0.0379501	-0.154105	0.234372	-0.161685	0	0	-0.507365	0.0273145	0.142161	-0.11898	-0.325552	0.253764	0.632164	1.24916	0	0	0.0970601	-0.306308	0.570167	0.479018	1.20059	0	0
0.12	2.75664	1.50739	-1.18869	0.667103	0.231307	1.02603	0.518721	0.0123406	-0.133258	0.713089	-0.177957	0	0	-0.247055	0.0356821	-0.151111	0.226898	-0.159547	0	0	-0.526069	0.0239524	0.19435	-0.164996	-0.291801	0.0905616	0.657014	1.37452	0	0	0.136447	-0.305367	0.642024	0.48381	1.17808	0	0
0.13	2.70768	1.50791	-1.14047	0.667404	0.241898	1.02468	0.517537	0.0150795	-0.149861	0.671913	-0.17154	0	0	-0.259931	0.0336159	-0.149038	0.221305	-0.157391	0	0	-0.525282	0.0274533	0.195851	-0.166408	-0.289857	0.081553	0.657777	1.3854	0	0	0.136257	-0.304359	0.644343	0.482475	1.17486	0	0
0.14	2.68957	1.50662	-1.12228	0.667956	0.252445	1.02338	0.512722	0.0174165	-0.164438	0.633859	-0.157645	0	0	-0.275325	0.03221	-0.146008	0.215265	-0.155837	0	0	-0.498032	0.0408777	0.127453	-0.121809	-0.286333	0.131053	0.62001	1.43062	0	0	0.0903689	-0.31055	0.604679	0.470975	1.14746	0	0
0.15	2.60875	1.50938	-1.04109	0.668116	0.263401	1.02187	0.512141	0.02148	-0.1781	0.597875	-0.145604	0	0	-0.28417	0.0293206	-0.144968	0.211097	-0.154004	0	0	-0.519437	0.0340797	0.188048	-0.15747	-0.286364	0.0841189	0.64371	1.41525	0	0	0.127808	-0.304186	0.633777	0.481139	1.17074	0	0
0.16	2.59004	1.50721	-1.02135	0.6685	0.274182	1.02055	0.505279	0.0252418	-0.189587	0.56778	-0.133089	0	0	-0.298806	0.0268045	-0.145904	0.207986	-0.152473	0	0	-0.517464	0.0408278	0.177194	-0.154946	-0.284207	0.0777415	0.644813	1.42159	0	0	0.122134	-0.303542	0.631497	0.47484	1.167	0	0
0.17	2.53998	1.50805	-0.968928	0.668711	0.285345	1.01908	0.501666	0.0291301	-0.198609	0.542696	-0.120695	0	0	-0.309178	0.0239138	-0.146212	0.205993	-0.151173	0	0	-0.519246	0.0411633	0.184363	-0.149001	-0.313893	0.174565	0.643778	1.28603	0	0	0.119851	-0.295881	0.590079	0.476044	1.21117	0	0
0.18	2.51731	1.50759	-0.942867	0.669026	0.296528	1.01761	0.497096	0.0322852	-0.205025	0.526777	-0.113527	0	0	-0.320549	0.0209627	-0.148224	0.20662	-0.149704	0	0	-0.524153	0.0437993	0.193667	-0.165155	-0.279609	0.0560866	0.644847	1.42222	0	0	0.133237	-0.300405	0.640936	0.474985	1.172	0	0
0.19	2.49885	1.50753	-0.920538	0.669403	0.307889	1.01604	0.493881	0.0350631	-0.208651	0.519767	-0.109686	0	0	-0.331318	0.0178868	-0.150474	0.208517	-0.148624	0	0	-0.522488	0.048844	0.18603	-0.163579	-0.277379	0.0529903	0.641933	1.43004	0	0	0.129917	-0.300076	0.6411	0.470258	1.16829	0	0
0.2	2.48337	1.50716	-0.900733	0.66974	0.319455	1.01448	0.490689	0.0379151	-0.21037	0.519841	-0.10574	0	0	-0.342108	0.0143891	-0.153014	0.211316	-0.147707	0	0	-0.522201	0.0530859	0.180762	-0.162624	-0.275062	0.0500622	0.637938	1.43751	0	0	0.12759	-0.299647	0.641153	0.466921	1.165	0	0
0.21	2.5038	1.50458	-0.916666	0.670189	0.33111	1.01302	0.484767	0.0406838	-0.209822	0.528045	-0.0998505	0	0	-0.355752	0.0108103	-0.156561	0.215523	-0.146717	0	0	-0.510259	0.0628748	0.139324	-0.140759	-0.27229	0.0719157	0.618384	1.46681	0	0	0.101555	-0.303114	0.621381	0.459205	1.1481	0	0
0.22	2.47928	1.50518	-0.887588	0.670433	0.343354	1.01135	0.482802	0.0439965	-0.207234	0.542395	-0.0966615	0	0	-0.364763	0.00686301	-0.160038	0.220602	-0.146441	0	0	-0.517878	0.0616836	0.156495	-0.143771	-0.306357	0.177289	0.625113	1.30333	0	0	0.105914	-0.293733	0.584342	0.459855	1.20272	0	0
0.23	2.5186	1.50211	-0.921742	0.670864	0.355593	1.00976	0.474661	0.0469782	-0.202692	0.562346	-0.0946407	0	0	-0.378817	0.00306124	-0.164815	0.227613	-0.146066	0	0	-0.510839	0.070046	0.125402	-0.139596	-0.275391	0.0944413	0.612462	1.44609	0	0	0.0893228	-0.299243	0.593352	0.453656	1.16911	0	0
0.24	2.4981	1.5033	-0.895497	0.671168	0.368315	1.00789	0.472314	0.050563	-0.197535	0.5826	-0.0992301	0	0	-0.385602	-0.00184456	-0.169074	0.237461	-0.146076	0	0	-0.516282	0.0696934	0.139408	-0.148626	-0.286022	0.12535	0.616055	1.38699	0	0	0.0962357	-0.297717	0.595856	0.456121	1.17886	0	0
0.25	2.48613	1.50175	-0.877733	0.671539	0.380857	1.00629	0.470648	0.0537938	-0.195068	0.601447	-0.111322	0	0	-0.393163	-0.00873062	-0.174839	0.251146	-0.145529	0	0	-0.517583	0.0748486	0.137566	-0.155326	-0.280892	0.106906	0.618284	1.39935	0	0	0.0961128	-0.297092	0.601537	0.451681	1.17699	0	0
0.26	2.4734	1.49663	-0.860059	0.67197	0.393174	1.0053	0.469101	0.0578771	-0.193263	0.615824	-0.126105	0	0	-0.401133	-0.0183757	-0.182609	0.269938	-0.144706	0	0	-0.509529	0.0867212	0.106878	-0.14361	-0.275387	0.106696	0.607018	1.43656	0	0	0.0774964	-0.297123	0.589927	0.4415	1.15941	0	0
0.27	2.40844	1.49241	-0.791567	0.672353	0.405719	1.00485	0.470827	0.0655113	-0.188151	0.629561	-0.134105	0	0	-0.403682	-0.0297077	-0.188251	0.291755	-0.146292	0	0	-0.520941	0.0913646	0.13094	-0.156577	-0.273957	0.0873692	0.610637	1.43779	0	0	0.091124	-0.292466	0.599642	0.440129	1.16498	0	0
0.28	2.37337	1.48299	-0.756395	0.672988	0.417928	1.00507	0.466479	0.078248	-0.175423	0.646465	-0.150194	0	0	-0.407681	-0.0432134	-0.20232	0.322248	-0.148646	0	0	-0.518445	0.104533	0.110873	-0.136406	-0.306565	0.208882	0.60607	1.30865	0	0	0.07043	-0.282052	0.53757	0.428897	1.20362	0	0
0.29	2.31848	1.47655	-0.704763	0.673998	0.430274	1.00548	0.465921	0.0929799	-0.153584	0.666919	-0.162609	0	0	-0.405414	-0.0547623	-0.214996	0.356949	-0.153739	0	0	-0.531995	0.109174	0.140061	-0.158239	-0.278512	0.089677	0.61194	1.42727	0	0	0.0835556	-0.274386	0.540339	0.424916	1.22032	0	0
0.3	2.29879	1.47	-0.690593	0.675318	0.442572	1.00612	0.462771	0.107737	-0.126699	0.688126	-0.167467	0	0	-0.403267	-0.0636079	-0.225874	0.395389	-0.160633	0	0	-0.534983	0.114194	0.139762	-0.150518	-0.294427	0.146356	0.609419	1.36365	0	0	0.0782032	-0.274782	0.547047	0.423139	1.20345	0	0
0.31	2.2889	1.46615	-0.687018	0.676842	0.45508	1.00673	0.459628	0.120046	-0.100102	0.707638	-0.172623	0	0	-0.39697	-0.0701797	-0.234747	0.439499	-0.16945	0	0	-0.539194	0.115268	0.145844	-0.1524	-0.289343	0.129008	0.607882	1.38624	0	0	0.0758197	-0.272824	0.5438	0.421104	1.20281	0	0
0.32	2.29788	1.46344	-0.701355	0.678414	0.467731	1.00744	0.452924	0.12854	-0.0814081	0.723499	-0.17568	0	0	-0.388225	-0.0754817	-0.240647	0.488178	-0.181386	0	0	-0.540864	0.115491	0.144723	-0.152071	-0.284604	0.117786	0.605366	1.40814	0	0	0.0698164	-0.272475	0.53878	0.418853	1.20226	0	0
0.33	2.3293	1.46027	-0.736244	0.680039	0.480327	1.00826	0.441295	0.133235	-0.0759229	0.734647	-0.171945	0	0	-0.378167	-0.0807455	-0.243053	0.541318	-0.197376	0	0	-0.530818	0.11957	0.111112	-0.135052	-0.278875	0.127797	0.590191	1.44784	0	0	0.0446342	-0.274803	0.517232	0.413619	1.19146	0	0
